<svg width="24" height="25" viewBox="0 0 24 25" fill="none" xmlns="http://www.w3.org/2000/svg">
<g id="Essentials/settings/3">
<path id="Icon" d="M4 5.90714H16M16 5.90714C16 7.0117 16.8954 7.90714 18 7.90714C19.1046 7.90714 20 7.0117 20 5.90714C20 4.80257 19.1046 3.90714 18 3.90714C16.8954 3.90714 16 4.80257 16 5.90714ZM8 12.9071H20M8 12.9071C8 14.0117 7.10457 14.9071 6 14.9071C4.89543 14.9071 4 14.0117 4 12.9071C4 11.8026 4.89543 10.9071 6 10.9071C7.10457 10.9071 8 11.8026 8 12.9071ZM4 19.9071H16M16 19.9071C16 21.0117 16.8954 21.9071 18 21.9071C19.1046 21.9071 20 21.0117 20 19.9071C20 18.8026 19.1046 17.9071 18 17.9071C16.8954 17.9071 16 18.8026 16 19.9071Z" stroke="#1E1E1E" stroke-width="2" stroke-linecap="round"/>
</g>
</svg>
