<svg width="24" height="25" viewBox="0 0 24 25" fill="none" xmlns="http://www.w3.org/2000/svg">
<g id="Food/casserole">
<path id="Icon" d="M6.18404 21.4712L6.63803 20.5802L6.18404 21.4712ZM4.43597 19.7231L5.32698 19.2691L4.43597 19.7231ZM19.564 19.7231L18.673 19.2691L19.564 19.7231ZM17.816 21.4712L17.362 20.5802L17.816 21.4712ZM19.727 10.9616L19.273 11.8526L19.727 10.9616ZM19.9455 11.1801L19.0545 11.6341L19.9455 11.1801ZM4.273 10.9616L4.727 11.8526L4.273 10.9616ZM4.0545 11.1801L4.9455 11.6341L4.0545 11.1801ZM4 6.90714C3.44772 6.90714 3 7.35485 3 7.90714C3 8.45942 3.44772 8.90714 4 8.90714V6.90714ZM20 8.90714C20.5523 8.90714 21 8.45942 21 7.90714C21 7.35485 20.5523 6.90714 20 6.90714V8.90714ZM20 12.9071C19.4477 12.9071 19 13.3548 19 13.9071C19 14.4594 19.4477 14.9071 20 14.9071V12.9071ZM22 14.9071C22.5523 14.9071 23 14.4594 23 13.9071C23 13.3548 22.5523 12.9071 22 12.9071V14.9071ZM2 12.9071C1.44772 12.9071 1 13.3548 1 13.9071C1 14.4594 1.44772 14.9071 2 14.9071V12.9071ZM4 14.9071C4.55228 14.9071 5 14.4594 5 13.9071C5 13.3548 4.55228 12.9071 4 12.9071V14.9071ZM4.8 11.9071H19.2V9.90714H4.8V11.9071ZM19 11.7071V15.5071H21V11.7071H19ZM13.6 20.9071H10.4V22.9071H13.6V20.9071ZM5 15.5071V11.7071H3V15.5071H5ZM10.4 20.9071C9.26339 20.9071 8.47108 20.9064 7.85424 20.856C7.24907 20.8065 6.90138 20.7143 6.63803 20.5802L5.73005 22.3622C6.32234 22.664 6.96253 22.7898 7.69138 22.8493C8.40855 22.9079 9.2964 22.9071 10.4 22.9071V20.9071ZM3 15.5071C3 16.6107 2.99922 17.4986 3.05782 18.2158C3.11737 18.9446 3.24318 19.5848 3.54497 20.1771L5.32698 19.2691C5.19279 19.0058 5.10062 18.6581 5.05118 18.0529C5.00078 17.4361 5 16.6437 5 15.5071H3ZM6.63803 20.5802C6.07354 20.2925 5.6146 19.8336 5.32698 19.2691L3.54497 20.1771C4.02433 21.1179 4.78924 21.8828 5.73005 22.3622L6.63803 20.5802ZM19 15.5071C19 16.6437 18.9992 17.4361 18.9488 18.0529C18.8994 18.6581 18.8072 19.0058 18.673 19.2691L20.455 20.1771C20.7568 19.5848 20.8826 18.9446 20.9422 18.2158C21.0008 17.4986 21 16.6107 21 15.5071H19ZM13.6 22.9071C14.7036 22.9071 15.5914 22.9079 16.3086 22.8493C17.0375 22.7898 17.6777 22.664 18.27 22.3622L17.362 20.5802C17.0986 20.7143 16.7509 20.8065 16.1458 20.856C15.5289 20.9064 14.7366 20.9071 13.6 20.9071V22.9071ZM18.673 19.2691C18.3854 19.8336 17.9265 20.2925 17.362 20.5802L18.27 22.3622C19.2108 21.8828 19.9757 21.1179 20.455 20.1771L18.673 19.2691ZM19.2 11.9071C19.2723 11.9071 19.325 11.9072 19.3697 11.9079C19.4145 11.9086 19.4368 11.9098 19.447 11.9106C19.4567 11.9114 19.4405 11.9108 19.4097 11.9035C19.3757 11.8955 19.3273 11.8803 19.273 11.8526L20.181 10.0706C19.963 9.95958 19.755 9.92913 19.6098 9.91727C19.4763 9.90636 19.3235 9.90714 19.2 9.90714V11.9071ZM21 11.7071C21 11.5836 21.0008 11.4308 20.9899 11.2973C20.978 11.1521 20.9476 10.9441 20.8365 10.7261L19.0545 11.6341C19.0268 11.5798 19.0117 11.5315 19.0036 11.4975C18.9964 11.4666 18.9957 11.4504 18.9965 11.4602C18.9973 11.4703 18.9986 11.4927 18.9993 11.5374C19 11.5821 19 11.6348 19 11.7071H21ZM19.273 11.8526C19.1789 11.8047 19.1024 11.7282 19.0545 11.6341L20.8365 10.7261C20.6927 10.4439 20.4632 10.2144 20.181 10.0706L19.273 11.8526ZM4.8 9.90714C4.67649 9.90714 4.52371 9.90636 4.39017 9.91727C4.24495 9.92913 4.03696 9.95958 3.81901 10.0706L4.727 11.8526C4.67267 11.8803 4.62435 11.8955 4.59032 11.9035C4.55946 11.9108 4.54326 11.9114 4.55303 11.9106C4.56319 11.9098 4.58554 11.9086 4.63028 11.9079C4.67499 11.9072 4.72771 11.9071 4.8 11.9071V9.90714ZM5 11.7071C5 11.6348 5.00003 11.5821 5.00073 11.5374C5.00143 11.4927 5.00266 11.4703 5.00349 11.4602C5.00429 11.4504 5.00363 11.4666 4.99636 11.4975C4.98835 11.5315 4.97318 11.5798 4.9455 11.6341L3.16349 10.7261C3.05244 10.9441 3.022 11.1521 3.01013 11.2973C2.99922 11.4308 3 11.5836 3 11.7071H5ZM3.81901 10.0706C3.53677 10.2144 3.3073 10.4439 3.16349 10.7261L4.9455 11.6341C4.89757 11.7282 4.82108 11.8047 4.727 11.8526L3.81901 10.0706ZM4 8.90714H20V6.90714H4V8.90714ZM9 7.90714C9 6.25028 10.3431 4.90714 12 4.90714V2.90714C9.23858 2.90714 7 5.14571 7 7.90714H9ZM12 4.90714C13.6569 4.90714 15 6.25028 15 7.90714H17C17 5.14571 14.7614 2.90714 12 2.90714V4.90714ZM20 14.9071H22V12.9071H20V14.9071ZM2 14.9071H4V12.9071H2V14.9071Z" fill="#1E1E1E"/>
</g>
</svg>
