<svg width="24" height="25" viewBox="0 0 24 25" fill="none" xmlns="http://www.w3.org/2000/svg">
<g id="Essentials/double heart">
<path id="Icon" d="M21 11.3158C21.8639 12.9147 21.7221 14.9049 20.5616 16.4121C19.2895 18.0643 15.4395 21.549 14.1777 22.6768C14.0365 22.803 13.966 22.8661 13.8836 22.8909C13.8118 22.9125 13.7331 22.9125 13.6613 22.8909C13.5789 22.8661 13.5084 22.803 13.3672 22.6768C12.9444 22.299 12.2312 21.6566 11.4217 20.9071M9.77245 5.58377C8.2174 3.74888 5.62425 3.2553 3.67587 4.93551C1.7275 6.61572 1.4532 9.42494 2.98327 11.4121C4.25541 13.0644 8.10538 16.549 9.36719 17.6768C9.50836 17.803 9.57894 17.8661 9.66128 17.8909C9.73314 17.9125 9.81177 17.9125 9.88363 17.8909C9.96596 17.8661 10.0365 17.803 10.1777 17.6768C11.4395 16.549 15.2895 13.0644 16.5616 11.4121C18.0917 9.42494 17.8509 6.59804 15.869 4.93551C13.8872 3.27297 11.3275 3.74888 9.77245 5.58377Z" stroke="#1E1E1E" stroke-width="2" stroke-linecap="round" stroke-linejoin="round"/>
</g>
</svg>
