<svg width="24" height="25" viewBox="0 0 24 25" fill="none" xmlns="http://www.w3.org/2000/svg">
<g id="Banking &#38; Finance/chart/trend">
<path id="Icon" d="M11.3536 10.2607L12.0607 9.55358L11.3536 10.2607ZM14.6464 13.5536L13.9393 14.2607L14.6464 13.5536ZM15.3536 13.5536L16.0607 14.2607L16.0607 14.2607L15.3536 13.5536ZM21.7071 8.61424C22.0976 8.22372 22.0976 7.59055 21.7071 7.20003C21.3166 6.8095 20.6834 6.8095 20.2929 7.20003L21.7071 8.61424ZM5.29289 14.2C4.90237 14.5906 4.90237 15.2237 5.29289 15.6142C5.68342 16.0048 6.31658 16.0048 6.70711 15.6142L5.29289 14.2ZM10.6464 10.2607L11.3536 10.9678L11.3536 10.9678L10.6464 10.2607ZM17 5.90714C16.4477 5.90714 16 6.35485 16 6.90714C16 7.45942 16.4477 7.90714 17 7.90714V5.90714ZM21 11.9071C21 12.4594 21.4477 12.9071 22 12.9071C22.5523 12.9071 23 12.4594 23 11.9071H21ZM22 21.9071C22.5523 21.9071 23 21.4594 23 20.9071C23 20.3548 22.5523 19.9071 22 19.9071V21.9071ZM3 4.90714C3 4.35485 2.55228 3.90714 2 3.90714C1.44772 3.90714 1 4.35485 1 4.90714H3ZM4.18404 20.4712L4.63803 19.5802H4.63803L4.18404 20.4712ZM2.43597 18.7231L1.54497 19.1771L2.43597 18.7231ZM10.6464 10.9678L13.9393 14.2607L15.3536 12.8465L12.0607 9.55358L10.6464 10.9678ZM16.0607 14.2607L21.7071 8.61424L20.2929 7.20003L14.6464 12.8465L16.0607 14.2607ZM6.70711 15.6142L11.3536 10.9678L9.93934 9.55358L5.29289 14.2L6.70711 15.6142ZM13.9393 14.2607C14.5251 14.8465 15.4749 14.8465 16.0607 14.2607L14.6464 12.8465C14.8417 12.6512 15.1583 12.6512 15.3536 12.8465L13.9393 14.2607ZM12.0607 9.55358C11.4749 8.9678 10.5251 8.96779 9.93934 9.55358L11.3536 10.9678C11.1583 11.1631 10.8417 11.1631 10.6464 10.9678L12.0607 9.55358ZM17 7.90714H21.5V5.90714H17V7.90714ZM21 7.40714V11.9071H23V7.40714H21ZM21.5 7.90714C21.2239 7.90714 21 7.68328 21 7.40714H23C23 6.57871 22.3284 5.90714 21.5 5.90714V7.90714ZM22 19.9071H8.4V21.9071H22V19.9071ZM3 14.5071V4.90714H1V14.5071H3ZM8.4 19.9071C7.26339 19.9071 6.47108 19.9064 5.85424 19.856C5.24907 19.8065 4.90138 19.7143 4.63803 19.5802L3.73005 21.3622C4.32234 21.664 4.96253 21.7898 5.69138 21.8493C6.40855 21.9079 7.2964 21.9071 8.4 21.9071V19.9071ZM1 14.5071C1 15.6107 0.999222 16.4986 1.05782 17.2158C1.11737 17.9446 1.24318 18.5848 1.54497 19.1771L3.32698 18.2691C3.19279 18.0058 3.10062 17.6581 3.05118 17.0529C3.00078 16.4361 3 15.6437 3 14.5071H1ZM4.63803 19.5802C4.07354 19.2925 3.6146 18.8336 3.32698 18.2691L1.54497 19.1771C2.02433 20.1179 2.78924 20.8828 3.73005 21.3622L4.63803 19.5802Z" fill="#1E1E1E"/>
</g>
</svg>
